<?xml version="1.0" encoding="UTF-8"?><svg enable-background="new 0 0 512 512" version="1.1" viewBox="0 0 512 512" xml:space="preserve" xmlns="http://www.w3.org/2000/svg"><rect x="215.98" y="424.9" width="16.006" height="15.818"/><rect x="248" y="424.9" width="16.005" height="15.818"/><rect x="280" y="424.9" width="16.006" height="15.818"/><rect x="71.928" y="192.82" width="32.012" height="15.818"/><rect x="119.95" y="192.82" width="32.012" height="15.818"/><rect x="167.96" y="192.82" width="32.012" height="15.818"/><rect x="215.98" y="192.82" width="32.012" height="15.818"/><rect x="264" y="192.82" width="32.012" height="15.818"/><rect x="312.02" y="192.82" width="32.011" height="15.818"/><rect x="360.04" y="192.82" width="32.011" height="15.818"/><rect x="408.05" y="192.82" width="32.012" height="15.818"/><path d="m256 31.26-256 165.16v284.32h512v-284.32l-256-165.16zm-221.24 161.56 221.24-142.74 221.24 142.74h-21.17v15.818h23.209l-223.28 158.46-223.28-158.46h23.208v-15.818h-21.17zm461.43 272.1h-480.36v-248.88l240.18 170.45 240.18-170.45v248.88z"/></svg>