<?xml version="1.0" encoding="UTF-8"?><svg enable-background="new 0 0 494.09 494.09" version="1.1" viewBox="0 0 494.09 494.09" xml:space="preserve" xmlns="http://www.w3.org/2000/svg"><path d="m468.28 85.437h-442.48c-14.249 0-25.806 11.555-25.806 25.806v271.6c0 14.25 11.557 25.806 25.806 25.806h442.48c14.25 0 25.806-11.556 25.806-25.806v-271.6c1e-3 -14.251-11.556-25.806-25.805-25.806zm-16.921 256.13c6.997 5.814 7.961 16.197 2.154 23.193-3.256 3.924-7.953 5.951-12.68 5.951-3.708 0-7.439-1.248-10.511-3.796l-116.15-96.406-56.616 46.988c-3.048 2.533-6.786 3.795-10.518 3.795-3.731 0-7.471-1.262-10.519-3.795l-56.614-46.988-116.15 96.406c-6.989 5.814-17.37 4.857-23.194-2.155-5.804-6.996-4.84-17.379 2.157-23.193l111.4-92.465-111.4-92.465c-6.997-5.814-7.961-16.197-2.157-23.193 5.824-6.996 16.205-7.953 23.194-2.155l183.28 152.13 183.28-152.13c6.996-5.798 17.385-4.841 23.191 2.155 5.807 6.997 4.842 17.379-2.154 23.193l-111.4 92.465 111.4 92.466z"/></svg>