<?xml version="1.0" encoding="UTF-8"?><svg enable-background="new 0 0 264.018 264.018" version="1.1" viewBox="0 0 264.02 264.02" xml:space="preserve" xmlns="http://www.w3.org/2000/svg"><path d="m132.01 0c-42.66 0-77.366 34.706-77.366 77.366 0 11.634 2.52 22.815 7.488 33.24 0.1 0.223 0.205 0.442 0.317 0.661l58.454 113.18c2.146 4.154 6.431 6.764 11.106 6.764 4.676 0 8.961-2.609 11.106-6.764l58.438-113.15c0.101-0.195 0.195-0.392 0.285-0.591 5.001-10.455 7.536-21.67 7.536-33.341 2e-3 -42.66-34.704-77.366-77.364-77.366zm0 117.86c-22.329 0-40.495-18.166-40.495-40.495 0-22.328 18.166-40.494 40.495-40.494s40.495 18.166 40.495 40.494c0 22.329-18.166 40.495-40.495 40.495z"/><path d="m161.81 249.02h-59.602c-4.143 0-7.5 3.357-7.5 7.5s3.357 7.5 7.5 7.5h59.602c4.143 0 7.5-3.357 7.5-7.5s-3.358-7.5-7.5-7.5z"/></svg>