<?xml version="1.0" encoding="UTF-8"?><svg enable-background="new 0 0 297 297" version="1.1" viewBox="0 0 297 297" xml:space="preserve" xmlns="http://www.w3.org/2000/svg"><path d="m42.352 106.15c-23.353 0-42.352 18.999-42.352 42.352s18.999 42.352 42.352 42.352 42.352-18.999 42.352-42.352-18.999-42.352-42.352-42.352z"/><path d="m148.5 106.15c-23.353 0-42.352 18.999-42.352 42.352s18.999 42.352 42.352 42.352 42.352-18.999 42.352-42.352-18.999-42.352-42.352-42.352z"/><path d="m254.65 106.15c-23.353 0-42.352 18.999-42.352 42.352s18.999 42.352 42.352 42.352 42.352-18.999 42.352-42.352-18.999-42.352-42.352-42.352z"/></svg>